<?xml version="1.0" encoding="UTF-8"?>
<svg width="159px" height="30px" viewBox="0 0 159 30" version="1.1" xmlns="http://www.w3.org/2000/svg" xmlns:xlink="http://www.w3.org/1999/xlink">
    <title>fastwork-logo-full-white</title>
    <g id="Page-1" stroke="none" stroke-width="1" fill="none" fill-rule="evenodd">
        <g id="fastwork-logo-full-white" fill="#1E6CE2" fill-rule="nonzero">
            <path d="M50.1736999,4.59839 C49.2205999,4.13397 48.1744999,3.89069 47.1137999,3.8868 C44.4106999,3.8868 41.8751999,5.55796 41.8751999,8.9434 L41.8751999,23.903 C41.8729999,23.98 41.8865999,24.0567 41.9150999,24.1284 C41.9436999,24.2 41.9865999,24.2651 42.0412999,24.3196 C42.0958999,24.3741 42.1611999,24.4169 42.2329999,24.4454 C42.3048999,24.4739 42.3817999,24.4874 42.4590999,24.4852 L44.8485999,24.4852 C44.9260999,24.4874 45.0032999,24.4739 45.0753999,24.4455 C45.1475999,24.417 45.2131999,24.3743 45.2682999,24.3199 C45.3233999,24.2655 45.3667999,24.2004 45.3959999,24.1288 C45.4250999,24.0571 45.4393999,23.9803 45.4378999,23.903 L45.4378999,12.9973 L48.5355999,12.9973 C48.6133999,12.9988 48.6906999,12.9846 48.7627999,12.9556 C48.8349999,12.9266 48.9004999,12.8833 48.9555999,12.8285 C49.0105999,12.7736 49.0538999,12.7082 49.0829999,12.6363 C49.1120999,12.5643 49.1262999,12.4873 49.1248999,12.4097 L49.1248999,10.9919 C49.1262999,10.9143 49.1120999,10.8373 49.0829999,10.7653 C49.0538999,10.6934 49.0105999,10.628 48.9555999,10.5732 C48.9004999,10.5183 48.8349999,10.4751 48.7627999,10.4461 C48.6906999,10.4171 48.6133999,10.4028 48.5355999,10.4043 L45.4378999,10.4043 L45.4378999,8.90027 C45.4166999,8.64457 45.4521999,8.38736 45.5419999,8.14692 C45.6317999,7.90648 45.7735999,7.68872 45.9572999,7.50911 C46.1410999,7.3295 46.3621999,7.19245 46.6050999,7.10772 C46.8478999,7.02299 47.1064999,6.99266 47.3624999,7.01887 C47.8561999,7.03134 48.3419999,7.14512 48.7896999,7.3531 C48.8563999,7.39628 48.9317999,7.42425 49.0105999,7.43503 C49.0893999,7.4458 49.1695999,7.4391 49.2454999,7.41542 C49.3213999,7.39173 49.3910999,7.35165 49.4496999,7.29802 C49.5082999,7.24438 49.5542999,7.17852 49.5843999,7.10512 L50.4222999,5.48787 C50.5049999,5.33646 50.5251999,5.15891 50.4787999,4.99286 C50.4323999,4.82682 50.3228999,4.68533 50.1736999,4.59839 Z" id="Path"></path>
            <path d="M65.5495999,9.77897 L63.1600999,9.77897 C63.0825999,9.77748 63.0054999,9.7917 62.9335999,9.82077 C62.8617999,9.84984 62.7965999,9.89315 62.7419999,9.94809 C62.6873999,10.003 62.6445999,10.0684 62.6160999,10.1404 C62.5875999,10.2123 62.5739999,10.2893 62.5761999,10.3666 L62.5761999,12.1186 C62.0267999,11.2929 61.2685999,10.6264 60.3782999,10.1863 C59.4878999,9.7462 58.4968999,9.54804 57.5052999,9.61185 C53.3587999,9.65498 50.5907999,12.6631 50.5907999,17.0889 C50.5907999,21.6011 53.3965999,24.6954 57.6187999,24.6954 C58.5904999,24.741 59.5573999,24.5338 60.4245999,24.0944 C61.2917999,23.6549 62.0294999,22.9982 62.5653999,22.1887 L62.5653999,23.9461 C62.5631999,24.0231 62.5766999,24.0999 62.6052999,24.1715 C62.6337999,24.2431 62.6767999,24.3082 62.7313999,24.3627 C62.7860999,24.4173 62.8513999,24.4601 62.9231999,24.4885 C62.9950999,24.517 63.0719999,24.5305 63.1492999,24.5283 L65.5387999,24.5283 C65.6162999,24.5305 65.6934999,24.517 65.7655999,24.4886 C65.8377999,24.4602 65.9033999,24.4174 65.9584999,24.363 C66.0135999,24.3086 66.0569999,24.2436 66.0861999,24.1719 C66.1152999,24.1002 66.1295999,24.0234 66.1280999,23.9461 L66.1280999,10.3666 C66.1353999,10.2885 66.1254999,10.2098 66.0991999,10.136 C66.0727999,10.0621 66.0306999,9.99486 65.9755999,9.93892 C65.9204999,9.88298 65.8538999,9.83969 65.7802999,9.81207 C65.7066999,9.78444 65.6279999,9.77314 65.5495999,9.77897 Z M62.4896999,17.2776 C62.4911999,17.7137 62.4495999,18.1489 62.3653999,18.5768 C62.1726999,19.4797 61.6694999,20.287 60.9428999,20.859 C60.2162999,21.431 59.3118999,21.7316 58.3864999,21.7089 C55.9104999,21.7089 54.1966999,19.8706 54.1966999,17.1968 C54.1966999,14.5229 55.9536999,12.6846 58.3864999,12.6846 C59.3136999,12.6544 60.2217999,12.9523 60.9499999,13.5255 C61.6781999,14.0987 62.1795999,14.9103 62.3653999,15.8167 C62.4679999,16.2399 62.5098999,16.6755 62.4896999,17.1105 L62.4896999,17.2776 Z" id="Shape"></path>
            <path d="M72.5879999,13.7089 C72.5879999,12.7871 73.4259999,12.4097 74.5990999,12.4097 C75.9347999,12.4631 77.2403999,12.8209 78.4158999,13.4555 C78.5600999,13.5325 78.7289999,13.5496 78.8858999,13.5032 C79.0427999,13.4567 79.1749999,13.3505 79.2537999,13.2076 L80.0052999,11.6604 C80.0719999,11.5214 80.0833999,11.3624 80.0372999,11.2154 C79.9911999,11.0683 79.8908999,10.9442 79.7565999,10.8679 C78.2377999,10.0462 76.5377999,9.61457 74.8099999,9.61186 C71.8365999,9.61186 69.2361999,11.035 69.2361999,14.0431 C69.1929999,19.2615 76.9453999,17.8167 76.9453999,20.5121 C76.9453999,21.4717 76.0262999,21.8922 74.7828999,21.8922 C73.1961999,21.8578 71.6538999,21.3633 70.3444999,20.469 C70.2715999,20.4216 70.1892999,20.3903 70.1032999,20.3774 C70.0171999,20.3646 69.9292999,20.3704 69.8456999,20.3944 C69.7620999,20.4185 69.6845999,20.4602 69.6185999,20.5168 C69.5525999,20.5734 69.4995999,20.6435 69.4632999,20.7224 L68.7388999,22.1294 C68.6806466,22.2562 68.6655999,22.3985 68.6958999,22.5347 C68.7260999,22.6709 68.7999999,22.7936 68.9064999,22.8841 C70.5794999,24.0395 72.5694999,24.6514 74.6044999,24.6361 C77.7508999,24.6361 80.4322999,23.1752 80.4322999,20.1671 C80.4268999,14.9164 72.5879999,16.1995 72.5879999,13.7089 Z" id="Path"></path>
            <path d="M90.2717999,21.5903 C90.2485999,21.5107 90.2087999,21.4369 90.1548999,21.3737 C90.1010999,21.3106 90.0343999,21.2595 89.9593999,21.2239 C89.8842999,21.1883 89.8024999,21.1688 89.7193999,21.167 C89.6362999,21.1651 89.5536999,21.1807 89.4770999,21.2129 C89.0124999,21.4099 88.5163999,21.5231 88.0120999,21.5472 C87.0010999,21.5472 86.4172999,20.8356 86.4172999,19.2507 L86.4172999,12.9973 L90.0609999,12.9973 C90.1387999,12.9988 90.2160999,12.9846 90.2881999,12.9556 C90.3603999,12.9266 90.4258999,12.8833 90.4809999,12.8285 C90.5359999,12.7736 90.5792999,12.7082 90.6083999,12.6363 C90.6374999,12.5643 90.6516999,12.4873 90.6502999,12.4097 L90.6502999,10.9919 C90.6516999,10.9143 90.6374999,10.8373 90.6083999,10.7653 C90.5792999,10.6934 90.5359999,10.628 90.4809999,10.5732 C90.4258999,10.5183 90.3603999,10.4751 90.2881999,10.4461 C90.2160999,10.4171 90.1387999,10.4029 90.0609999,10.4043 L86.4172999,10.4043 L86.4172999,6.93801 C86.4186999,6.86045 86.4044999,6.78338 86.3753999,6.71143 C86.3462999,6.63947 86.3028999,6.57411 86.2478999,6.51926 C86.1928999,6.4644 86.1273999,6.42116 86.0551999,6.39215 C85.9830999,6.36314 85.9057999,6.34895 85.8279999,6.35030776 L83.4438999,6.35030776 C83.3660999,6.34895 83.2887999,6.36314 83.2165999,6.39215 C83.1444999,6.42116 83.0788999,6.4644 83.0238999,6.51926 C82.9688999,6.57411 82.9255999,6.63947 82.8964999,6.71143 C82.8673999,6.78338 82.8530999,6.86045 82.8545999,6.93801 L82.8545999,19.8491 C82.8545999,23.0836 84.7845999,24.7008 87.2984999,24.7008 C88.4116999,24.6812 89.5038999,24.3946 90.4826999,23.8652 C90.6105999,23.8032 90.7109999,23.6963 90.7648999,23.565 C90.8186999,23.4337 90.8221999,23.2873 90.7745999,23.1536 L90.2717999,21.5903 Z" id="Path"></path>
            <path d="M124.255,9.65498 C119.563,9.65498 116.422,12.6631 116.422,17.1321 C116.422,21.6011 119.563,24.6523 124.255,24.6523 C128.861,24.6523 132.051,21.6011 132.051,17.1321 C132.051,12.6631 128.861,9.65498 124.255,9.65498 Z M124.255,21.6442 C121.785,21.6442 120.066,19.8059 120.066,17.1752 C120.066,14.5445 121.785,12.7062 124.255,12.7062 C126.726,12.7062 128.402,14.5445 128.402,17.1752 C128.402,19.8059 126.683,21.6442 124.255,21.6442 Z" id="Shape"></path>
            <path d="M142.646,9.65499 C141.728,9.72296 140.844,10.0281 140.08,10.5404 C139.315,11.0527 138.698,11.7545 138.289,12.5768 L138.289,10.3235 C138.291,10.2462 138.278,10.1692 138.249,10.0973 C138.221,10.0253 138.178,9.95992 138.123,9.90498 C138.069,9.85005 138.003,9.80674 137.932,9.77767 C137.86,9.74859 137.783,9.73437 137.705,9.73586 L135.316,9.73586 C135.238,9.73437 135.161,9.74859 135.089,9.77767 C135.017,9.80674 134.952,9.85005 134.897,9.90498 C134.843,9.95992 134.8,10.0253 134.772,10.0973 C134.743,10.1692 134.729,10.2462 134.732,10.3235 L134.732,23.8598 C134.729,23.9371 134.743,24.0141 134.772,24.086 C134.8,24.158 134.843,24.2234 134.897,24.2783 C134.952,24.3333 135.017,24.3766 135.089,24.4056 C135.161,24.4347 135.238,24.4489 135.316,24.4475076 L137.705,24.4475076 C137.783,24.4489 137.86,24.4347 137.932,24.4056 C138.003,24.3766 138.069,24.3333 138.123,24.2783 C138.178,24.2234 138.221,24.158 138.249,24.086 C138.278,24.0141 138.291,23.9371 138.289,23.8598 L138.289,17.4232 C138.289,14.9164 139.965,13.1644 142.733,13.1105 C142.887,13.1077 143.034,13.0455 143.143,12.9369 C143.251,12.8283 143.314,12.6819 143.317,12.5283 L143.317,10.3235 C143.326,10.2334 143.315,10.1424 143.285,10.057 C143.254,9.97172 143.205,9.89422 143.141,9.83019 C143.077,9.76617 142.999,9.71723 142.913,9.68692 C142.828,9.65661 142.737,9.64569 142.646,9.65499 Z" id="Path"></path>
            <path d="M158.908,23.6119 L153.713,15.4609 L158.194,10.7817 C158.277,10.6992 158.333,10.594 158.356,10.4797 C158.378,10.3653 158.366,10.2468 158.321,10.1393 C158.275,10.0318 158.199,9.94017 158.102,9.87601 C158.004,9.81184 157.89,9.77806 157.773,9.77898 L155.302,9.77898 C155.148,9.78257 155,9.84195 154.886,9.94609 L148.977,15.876 L148.977,4.64151 C148.978,4.56394 148.964,4.48688 148.935,4.41493 C148.906,4.34297 148.863,4.27761 148.808,4.22275 C148.752,4.1679 148.687,4.12466 148.615,4.09565 C148.543,4.06664 148.465,4.05245 148.388,4.05380776 L146.003,4.05380776 C145.926,4.05245 145.848,4.06664 145.776,4.09565 C145.704,4.12466 145.639,4.1679 145.584,4.22275 C145.528,4.27761 145.485,4.34297 145.456,4.41493 C145.427,4.48688 145.413,4.56394 145.41395,4.64151 L145.41395,23.903 C145.413,23.9803 145.427,24.0571 145.456,24.1288 C145.485,24.2005 145.529,24.2655 145.584,24.3199 C145.639,24.3743 145.704,24.4171 145.777,24.4455 C145.849,24.4739 145.926,24.4874 146.003,24.4852 L148.388,24.4852 C148.465,24.4874 148.542,24.4739 148.614,24.4455 C148.687,24.4171 148.752,24.3743 148.807,24.3199 C148.862,24.2655 148.906,24.2005 148.935,24.1288 C148.964,24.0571 148.978,23.9803 148.977,23.903 L148.977,20.4313 L151.237,18.0539 L155.053,24.2372 C155.108,24.3223 155.182,24.3931 155.269,24.4438 C155.357,24.4944 155.455,24.5234 155.556,24.5283 L158.405,24.5283 C158.511,24.5257 158.615,24.4953 158.705,24.4402 C158.796,24.3851 158.87,24.3073 158.921,24.2145 C158.972,24.1217 158.998,24.0172 158.995,23.9114 C158.993,23.8056 158.963,23.7023 158.908,23.6119 Z" id="Path"></path>
            <path d="M114.151,11.5741 L114.151,10.4043 C114.152,10.327 114.138,10.2502 114.109,10.1785 C114.079,10.1068 114.036,10.0418 113.981,9.98739 C113.926,9.93295 113.86,9.89024 113.788,9.86183 C113.716,9.83342 113.639,9.81991 113.561,9.82212 L111.177,9.82212 C111.1,9.81991 111.022,9.83342 110.95,9.86183 C110.878,9.89024 110.813,9.93295 110.757,9.98739 C110.702,10.0418 110.659,10.1068 110.63,10.1785 C110.601,10.2502 110.586,10.327 110.588,10.4043 L110.588,14.0809 C110.588,15.5472 110.631,17.0081 110.588,18.469 C110.591,19.0401 110.409,19.597 110.069,20.0566 C109.729,20.5162 109.249,20.8537 108.701,21.0189 C108.345,21.1123 107.973,21.1293 107.609,21.0688 C107.246,21.0083 106.9,20.8716 106.593,20.6679 C106.287,20.4641 106.027,20.1978 105.831,19.8866 C105.635,19.5755 105.508,19.2264 105.457,18.8625 C105.436,18.4441 105.436,18.0249 105.457,17.6065 L105.457,10.3828 C105.459,10.3052 105.445,10.2281 105.416,10.1562 C105.386,10.0842 105.343,10.0189 105.288,9.96399 C105.233,9.90914 105.168,9.86592 105.095,9.83691 C105.023,9.80789 104.946,9.79369 104.868,9.79515 L102.484,9.79515 C102.406,9.79369 102.329,9.80789 102.257,9.83691 C102.185,9.86592 102.119,9.90914 102.064,9.96399 C102.009,10.0189 101.966,10.0842 101.937,10.1562 C101.908,10.2281 101.893,10.3052 101.895,10.3828 L101.895,14.0431 C101.895,15.504 101.938,16.965 101.895,18.4259 C101.895,19.0128 101.702,19.5836 101.347,20.0516 C100.992,20.5196 100.493,20.8592 99.9268999,21.0189 C99.5668999,21.1054 99.1923999,21.114 98.8286999,21.0439 C98.4649999,20.9739 98.1206999,20.8268 97.8188999,20.6127 C97.5170999,20.3986 97.2647999,20.1225 97.0791999,19.8029 C96.8934999,19.4833 96.7787999,19.1277 96.7426999,18.7601 C96.7210999,18.3705 96.7210999,17.9799 96.7426999,17.5903 L96.7426999,10.3666 C96.7441999,10.289 96.7298999,10.2119 96.7008999,10.14 C96.6717999,10.068 96.6283999,10.0027 96.5733999,9.94782 C96.5183999,9.89296 96.4527999,9.84975 96.3806999,9.82073 C96.3084999,9.79172 96.2311999,9.77752 96.1533999,9.77887783 L93.7260999,9.77887783 C93.6482999,9.77752 93.5709999,9.79172 93.4988999,9.82073 C93.4266999,9.84975 93.3611999,9.89296 93.3060999,9.94782 C93.2510999,10.0027 93.2077999,10.068 93.1786999,10.14 C93.1495999,10.2119 93.1353999,10.289 93.1367056,10.3666 L93.1367056,18.5553 C93.1463999,19.9722 93.6483999,21.3419 94.5572999,22.4311 C95.4661999,23.5202 96.7257999,24.2614 98.1212999,24.5283 C99.1914999,24.7353 100.3,24.6101 101.296,24.1695 C102.293,23.729 103.13,22.9944 103.695,22.0647 C104.125,22.7679 104.712,23.3635 105.409,23.8055 C106.106,24.2475 106.896,24.5243 107.717,24.6145 C109.266,24.7104 110.794,24.2173 111.993,23.2345 C112.965,22.4145 113.666,21.321 114.005,20.097 C114.198,19.2343 114.269,18.3487 114.215,17.4663 C114.15,15.5041 114.151,13.5418 114.151,11.5741 Z" id="Path"></path>
            <path d="M31.1140999,21.3425 L24.3680999,16.1301 L24.5022999,17.1381 C24.5666999,17.5482 24.5989999,17.9627 24.5988999,18.3779 C24.5980999,18.7383 24.5747999,19.0984 24.5290999,19.4559 L29.5201999,23.3153 C29.9835999,23.6453 30.3076999,24.1371 30.4290999,24.6946 C30.5504999,25.252 30.4603999,25.8348 30.1763999,26.329 C29.8924999,26.8232 29.4350999,27.1932 28.8938999,27.3665 C28.3525999,27.5399 27.7663999,27.5041 27.2500999,27.2663 L19.7366999,24.1453 C20.7541999,23.5699 21.6011999,22.733 22.1905999,21.7204 C22.7799999,20.7079 23.0906999,19.5561 23.0908999,18.3832 C23.0895999,17.9619 23.0499999,17.5415 22.9727999,17.1273 L21.2607999,4.19089 C21.1102999,3.03193 20.5450999,1.96756 19.6706999,1.19641 C18.7961999,0.42525 17.6722999,0 16.5085999,0 C15.3448999,0 14.2209999,0.42525 13.3464999,1.19641 C12.4720999,1.96756 11.9068999,3.03193 11.7563999,4.19089 L10.6346999,12.6643 L11.4343999,12.0444 C11.7570999,11.784 12.0997999,11.5497 12.4593999,11.3437 C12.7648999,11.1674 13.0801999,11.009 13.4038999,10.8693 L14.2357999,4.60055 C14.2906999,4.0341 14.5535999,3.50845 14.9731999,3.126 C15.3928999,2.74356 15.9391999,2.5317 16.5058999,2.5317 C17.0725999,2.5317 17.6188999,2.74356 18.0385999,3.126 C18.4581999,3.50845 18.7210999,4.0341 18.7759999,4.60055 L19.8493999,12.6858 C18.6501999,11.9788 17.2591999,11.6706 15.8750999,11.8052 C14.4909999,11.9397 13.1846999,12.5102 12.1427999,13.4351 L1.8869799,21.3586 C0.960159902,22.0683 0.322557902,23.0928 0.0934936022,24.2405 C-0.135570098,25.3882 0.0595973022,26.5804 0.642480902,27.594 C1.2253699,28.6076 2.1560199,29.3731 3.2602799,29.7474 C4.3645399,30.1216 5.5667299,30.0789 6.6418899,29.6272 L14.5040999,26.3661 L13.5702999,25.978 C13.1874999,25.8257 12.8161999,25.6456 12.4593999,25.439 C12.1526999,25.2621 11.8585999,25.064 11.5792999,24.8461 L5.7510099,27.2663 C5.2346299,27.5041 4.6484499,27.5399 4.1071999,27.3665 C3.5659599,27.1932 3.1085999,26.8232 2.8246499,26.329 C2.5406999,25.8348 2.4505999,25.252 2.5719699,24.6946 C2.6933499,24.1371 3.0174699,23.6453 3.4808999,23.3153 L9.9209499,18.3347 C9.9209499,18.3347 9.9209499,18.3671 9.9209499,18.3832 C9.9220499,19.7329 10.3338999,21.0499 11.1011999,22.1578 C11.8685999,23.2657 12.9547999,24.1116 14.2142999,24.5819 L26.3698999,29.611 C27.4445999,30.0591 28.6448999,30.0992 29.7468999,29.7238 C30.8488999,29.3484 31.7771999,28.5832 32.3586999,27.5708 C32.9401999,26.5585 33.1350999,25.3683 32.9070999,24.2222 C32.6790999,23.0762 32.0436999,22.0526 31.1194999,21.3425 L31.1140999,21.3425 Z M12.4164964,18.3671 C12.4174999,17.5592 12.6569999,16.7698 13.1046999,16.0986 C13.5522999,15.4274 14.1879999,14.9046 14.9313999,14.5962 C15.6747999,14.2878 16.4925999,14.2076 17.2812999,14.3659 C18.0700999,14.5241 18.7943999,14.9137 19.3627999,15.4853 C19.9311999,16.0569 20.3180999,16.7849 20.4745999,17.5774 C20.6311999,18.3698 20.5502999,19.191 20.2421999,19.9373 C19.9341999,20.6835 19.4127999,21.3213 18.7438999,21.77 C18.0750999,22.2187 17.2887999,22.4582 16.4843999,22.4582 C15.9497999,22.4582 15.4203999,22.3524 14.9264999,22.1467 C14.4325999,21.941 13.9838999,21.6396 13.6060999,21.2596 C13.2281999,20.8796 12.9286999,20.4286 12.7245999,19.9323 C12.5204999,19.4359 12.4157999,18.9041 12.4164964,18.3671 Z" id="Shape"></path>
        </g>
    </g>
</svg>